<mxfile host="app.diagrams.net" modified="2021-07-05T17:40:00.749Z" agent="5.0 (Windows NT 10.0; Win64; x64) AppleWebKit/537.36 (KHTML, like Gecko) Chrome/91.0.4472.124 Safari/537.36" etag="R59aGmV_9LrVkuCcy5QY" version="14.8.4" type="github">
  <diagram id="XA9FX2ISP-CeSPtBVTkP" name="Page-1">
    <mxGraphModel dx="2942" dy="1122" grid="1" gridSize="10" guides="1" tooltips="1" connect="1" arrows="1" fold="1" page="1" pageScale="1" pageWidth="827" pageHeight="1169" math="0" shadow="0">
      <root>
        <mxCell id="0" />
        <mxCell id="1" parent="0" />
        <mxCell id="VhpSC5Hc4B8EdgGtLk8X-4" style="edgeStyle=orthogonalEdgeStyle;rounded=0;orthogonalLoop=1;jettySize=auto;html=1;entryX=0.5;entryY=0;entryDx=0;entryDy=0;" edge="1" parent="1" source="VhpSC5Hc4B8EdgGtLk8X-1" target="VhpSC5Hc4B8EdgGtLk8X-2">
          <mxGeometry relative="1" as="geometry">
            <mxPoint x="230" y="90" as="targetPoint" />
            <Array as="points">
              <mxPoint x="280" y="110" />
              <mxPoint x="400" y="110" />
              <mxPoint x="400" y="60" />
              <mxPoint x="600" y="60" />
            </Array>
          </mxGeometry>
        </mxCell>
        <mxCell id="VhpSC5Hc4B8EdgGtLk8X-1" value="jopa" style="rounded=0;whiteSpace=wrap;html=1;" vertex="1" parent="1">
          <mxGeometry x="300" y="200" width="270" height="60" as="geometry" />
        </mxCell>
        <mxCell id="VhpSC5Hc4B8EdgGtLk8X-3" style="edgeStyle=orthogonalEdgeStyle;rounded=0;orthogonalLoop=1;jettySize=auto;html=1;" edge="1" parent="1" source="VhpSC5Hc4B8EdgGtLk8X-2" target="VhpSC5Hc4B8EdgGtLk8X-1">
          <mxGeometry relative="1" as="geometry" />
        </mxCell>
        <mxCell id="VhpSC5Hc4B8EdgGtLk8X-2" value="" style="rounded=1;whiteSpace=wrap;html=1;" vertex="1" parent="1">
          <mxGeometry x="540" y="90" width="120" height="60" as="geometry" />
        </mxCell>
        <mxCell id="VhpSC5Hc4B8EdgGtLk8X-5" value="" style="curved=1;endArrow=classic;html=1;exitX=1;exitY=0.5;exitDx=0;exitDy=0;entryX=0;entryY=0.5;entryDx=0;entryDy=0;" edge="1" parent="1" source="VhpSC5Hc4B8EdgGtLk8X-2" target="VhpSC5Hc4B8EdgGtLk8X-1">
          <mxGeometry width="50" height="50" relative="1" as="geometry">
            <mxPoint x="600" y="340" as="sourcePoint" />
            <mxPoint x="430" y="50" as="targetPoint" />
            <Array as="points">
              <mxPoint x="770" y="380" />
              <mxPoint x="400" y="250" />
              <mxPoint x="-60" y="470" />
            </Array>
          </mxGeometry>
        </mxCell>
      </root>
    </mxGraphModel>
  </diagram>
</mxfile>
